{"title":"SUCKER PUNCH 2011 1080P M2TS AC3","uid":6479898,"size":4287270958,"categoryP":"video","categoryS":"hd___movies","magnet":"?xt=urn:btih:6e747575cfe2eca775f405da9dcdc647f1fdfacc&amp;dn=SUCKER+PUNCH+2011+1080P+M2TS+AC3&amp;tr=udp%3A%2F%2Ftracker.openbittorrent.com%3A80&amp;tr=udp%3A%2F%2Fopen.demonii.com%3A1337&amp;tr=udp%3A%2F%2Ftracker.coppersurfer.tk%3A6969&amp;tr=udp%3A%2F%2Fexodus.desync.com%3A6969","seeders":1,"leechers":0,"uploader":"TPBAgri","files":-1,"time":1308472844,"description":"Sucker Punch is a 2011 action-fantasy thriller film, about the fantasies of a young woman who is committed to a mental institution. It was written by Steve Shibuya and Zack Snyder and directed by Snyder. The film features an ensemble cast starring Emily Browning as the central character (Babydoll)and Abbie Cornish as the second main character (Sweet Pea), as well as Oscar Isaac (Blue).The film was released in both conventional and IMAX theatres in the US at midnight on March 25, 2011.A young girl is institutionalized by her wicked stepfather. Retreating to an alternative reality as a coping strategy, she envisions a plan which will help her escape from the facility. \n\n\n\nFormat : BDAV\nFormat/Info : Blu-ray Video\nFile size : 3.99 GiB\nDuration : 1h 49mn\nOverall bit rate : 5 209 Kbps\nMaximum Overall bit rate : 35.5 Mbps\n\nVideo\nID : 4113 (0x1011)\nMenu ID : 1 (0x1)\nFormat : AVC\nFormat/Info : Advanced Video Codec\nFormat profile : &lt;a class=&quot;__cf_email__&quot; href=&quot;/cdn-cgi/l/email-protection&quot; data-cfemail=&quot;fbb3929c93bbb7cfd5cb&quot;&gt;[email&amp;#160;protected]&lt;/a&gt;&lt;script cf-hash='f9e31' type=&quot;text/javascript&quot;&gt;\n/* &lt;![CDATA[ */!function(){try{var t=&quot;currentScript&quot;in document?document.currentScript:function(){for(var t=document.getElementsByTagName(&quot;script&quot;),e=t.length;e--;)if(t[e].getAttribute(&quot;cf-hash&quot;))return t[e]}();if(t&amp;&amp;t.previousSibling){var e,r,n,i,c=t.previousSibling,a=c.getAttribute(&quot;data-cfemail&quot;);if(a){for(e=&quot;&quot;,r=parseInt(a.substr(0,2),16),n=2;a.length-n;n+=2)i=parseInt(a.substr(n,2),16)^r,e+=String.fromCharCode(i);e=document.createTextNode(e),c.parentNode.replaceChild(e,c)}}}catch(u){}}();/* ]]&gt; */&lt;/script&gt;\nFormat settings, CABAC : Yes\nFormat settings, ReFrames : 3 frames\nCodec ID : 27\nDuration : 1h 49mn\nBit rate mode : Variable\nBit rate : 4 252 Kbps\nMaximum bit rate : 25.0 Mbps\nWidth : 1 920 pixels\nHeight : 1 080 pixels\nDisplay aspect ratio : 16:9\nFrame rate : 23.976 fps\nColor space : YUV\nChroma subsampling : 4:2:0\nBit depth : 8 bits\nScan type : Progressive\nBits/(Pixel*Frame) : 0.086\nStream size : 3.34 GiB (84%)\nWriting library : x264\n\nAudio\nID : 4352 (0x1100)\nMenu ID : 1 (0x1)\nFormat : AC-3\nFormat/Info : Audio Coding 3\nMode extension : CM (complete main)\nCodec ID : 129\nDuration : 1h 49mn\nBit rate mode : Constant\nBit rate : 640 Kbps\nChannel(s) : 6 channels\nChannel positions : Front: L C R, Side: L R, LFE\nSampling rate : 48.0 KHz\nBit depth : 16 bits\nCompression mode : Lossy\nStream size : 502 MiB (12%)\nLanguage : English\n","torrent":{"xt":"urn:btih:6e747575cfe2eca775f405da9dcdc647f1fdfacc","amp;dn":"SUCKER+PUNCH+2011+1080P+M2TS+AC3","amp;tr":["udp%3A%2F%2Ftracker.openbittorrent.com%3A80","udp%3A%2F%2Fopen.demonii.com%3A1337","udp%3A%2F%2Ftracker.coppersurfer.tk%3A6969","udp%3A%2F%2Fexodus.desync.com%3A6969"],"infoHash":"6e747575cfe2eca775f405da9dcdc647f1fdfacc","infoHashBuffer":{"type":"Buffer","data":[110,116,117,117,207,226,236,167,117,244,5,218,157,205,198,71,241,253,250,204]},"announce":[],"urlList":[]}}